<?xml version="1.0" encoding="utf-8"?>
<!-- Generator: Adobe Illustrator 18.1.1, SVG Export Plug-In . SVG Version: 6.00 Build 0)  -->
<svg version="1.1" id="Layer_1" xmlns="http://www.w3.org/2000/svg" xmlns:xlink="http://www.w3.org/1999/xlink" x="0px" y="0px"
	 viewBox="0 0 30 30" enable-background="new 0 0 30 30" xml:space="preserve">
<g>
	<path fill="none" stroke="#FFFFFF" stroke-width="2" stroke-linecap="round" stroke-linejoin="round" stroke-miterlimit="10" d="
		M14.8,12c0,5.2,0,10.5,0,16.3c2-0.5,3.9-1,5.7-1.5c0.6-0.2,1.2-0.6,1.8-0.9c5.7-2.1,5.7-2.1,5.7-8.2c0-3.3,0-6.6,0-10.2
		c-4.5-1.8-8.9-3.6-13.2-5.3C10.4,3.9,6.1,5.6,1.7,7.4c0,5.5,0,10.8,0,16.7c3.9,1.2,8.2,2.5,12.5,3.9c0.3,0.1,0.4,0.6,0.6,0.9"/>
	<path fill="none" stroke="#FFFFFF" stroke-width="2" stroke-linecap="round" stroke-linejoin="round" stroke-miterlimit="10" d="
		M3.6,7.4c3.4,1.3,6.8,2.8,10.3,3.8c1.4,0.4,3.3-0.3,4.8-0.8c2.5-0.8,4.8-2,7.3-3"/>
</g>
</svg>
