<?xml version="1.0" encoding="utf-8"?>
<!-- Generator: Adobe Illustrator 18.1.1, SVG Export Plug-In . SVG Version: 6.00 Build 0)  -->
<svg version="1.1" id="Layer_1" xmlns="http://www.w3.org/2000/svg" xmlns:xlink="http://www.w3.org/1999/xlink" x="0px" y="0px"
	 viewBox="0 0 104 120" enable-background="new 0 0 104 120" xml:space="preserve">
<g>
	<path fill="#999999" d="M15.5,95.8c-4-2.4-7.8-4.7-11.6-6.8c-1.3-0.7-1.7-1.6-1.7-3.1c0.1-17.3,0-34.7,0-52c0-1.1,0.3-1.7,1.3-2.3
		C19.3,21.8,35,12.1,50.8,2.3c0.8-0.5,1.4-0.5,2.2,0c15.8,9.8,31.5,19.5,47.3,29.2c0.9,0.5,1.2,1.1,1.2,2.2c0,17.6,0,35.2,0,52.8
		c0,1.1-0.3,1.6-1.2,2.2c-3.5,2.1-7,4.2-10.5,6.4c-0.4,0.2-0.8,0.5-1.5,0.8c0-0.8,0-1.4,0-1.9c0-17.4,0-34.8,0-52.2
		c0-1.2-0.3-1.9-1.4-2.5c-11.3-6.9-22.5-13.9-33.7-21c-0.9-0.6-1.6-0.6-2.6,0c-11.3,7-22.5,14-33.8,21c-1,0.6-1.3,1.3-1.3,2.4
		c0,17.4,0,34.8,0,52.2C15.5,94.4,15.5,94.9,15.5,95.8z"/>
	<path fill="#999999" d="M44.7,37.2c0,0.7,0,1.2,0,1.8c0,20.5,0,41,0,61.5c0,1.1,0.3,1.7,1.2,2.2c1.7,1,3.4,2,5,3.2
		c0.8,0.5,1.3,0.5,2.1,0c1.6-1.1,3.3-2.2,5-3.2c0.9-0.5,1.1-1.1,1.1-2.1c0-20.5,0-41.1,0-61.6c0-0.6,0-1.1,0-2
		c1.5,1,2.8,1.8,4.1,2.6c3.7,2.3,7.4,4.6,11.1,6.8c0.7,0.4,1.1,0.9,1.1,1.8c0,18.2,0,36.3,0,54.5c0,0.8-0.2,1.3-0.9,1.7
		c-7.2,4.5-14.4,9-21.6,13.5c-0.7,0.4-1.1,0.4-1.8,0c-7.2-4.5-14.5-9-21.7-13.6c-0.4-0.3-0.8-1-0.8-1.6c0-18.2,0-36.4,0-54.7
		c0-0.5,0.3-1.2,0.6-1.4c5-3.2,10.1-6.3,15.1-9.4C44.3,37.3,44.4,37.3,44.7,37.2z"/>
</g>
</svg>
