<?xml version="1.0" encoding="utf-8"?>
<!-- Generator: Adobe Illustrator 18.1.1, SVG Export Plug-In . SVG Version: 6.00 Build 0)  -->
<svg version="1.1" id="Layer_1" xmlns="http://www.w3.org/2000/svg" xmlns:xlink="http://www.w3.org/1999/xlink" x="0px" y="0px"
	 viewBox="0 0 58 58" enable-background="new 0 0 58 58" xml:space="preserve">
<g>
	<g>
		<g>
			<path fill="#F2F2F2" d="M21.5,38.8c0.1-0.6,0.3-1.2,0.8-1.6c0.2-0.2,0.4-0.3,0.7-0.4c0.3-0.1,0.3-0.2,0.3-0.4
				c0.2-1.6,0.6-3,1.6-4.3c0.9-1.1,2-1.9,3.4-2.3c1.8-0.5,3.7-0.6,5.5,0c2.4,0.7,3.9,2.4,4.7,4.7c0.2,0.7,0.3,1.4,0.4,2
				c0,0.1,0.1,0.2,0.1,0.2c0.7,0.2,1.1,0.7,1.4,1.3c0.1,0.2,0.2,0.5,0.2,0.7C34.2,38.8,27.8,38.8,21.5,38.8z M24.9,35.2
				c0.1,0.1,0.1,0.2,0.2,0.3c0.2,0.2,0.5,0,0.6-0.3c0.3-1.2,0.9-2.1,1.8-2.9c0.7-0.6,1.6-1,2.5-1.3c0.2-0.1,0.3-0.2,0.3-0.4
				c-0.1-0.2-0.2-0.3-0.4-0.2c-0.2,0-0.3,0.1-0.4,0.1c-1.7,0.5-3,1.4-3.9,3C25.3,34,25.1,34.6,24.9,35.2z M25.2,37.3
				C25.2,37.3,25.2,37.3,25.2,37.3c-0.6,0-1.2,0-1.8,0c-0.1,0-0.2,0.1-0.4,0.2c0.1,0.1,0.2,0.2,0.3,0.3c0,0,0.1,0,0.1,0
				c1.1,0,2.3,0,3.4,0c0.2,0,0.3-0.1,0.3-0.3c0-0.2-0.2-0.2-0.3-0.2C26.4,37.3,25.8,37.3,25.2,37.3z"/>
			<path fill="#F2F2F2" d="M25.7,20.3c0.9-0.2,1.7-0.4,2.5-0.5c0.7-0.1,1.3-0.1,2-0.1c1.2,0,2.4,0,3.6,0c0.4,0,0.8,0.1,1.2,0.2
				c0.3,0.1,0.5,0.2,0.5,0.5c0,0.3-0.3,0.4-0.5,0.5c-0.4,0.1-0.9,0.2-1.3,0.2c-0.8,0-1.7,0-2.5,0.1c-0.9,0-1.6,0.3-2.4,0.8
				c-1.1,0.6-2.3,1.3-3.5,1.8c-1,0.5-2.1,0.6-3.1,0.2c-1.7-0.5-3.5-1.1-5.2-1.7c1-1.7,2-3.4,3-5.1c0.4,0.2,0.9,0.4,1.2,0.6
				c0.9,0.5,1.8,0.5,2.7,0.1c1.7-0.7,3.5-1.4,5.2-2.1c1.3-0.5,2.5-0.4,3.7,0.2c3.2,1.6,6.4,3.2,9.5,4.8c0.4,0.2,0.8,0.5,1.1,0.8
				c0.3,0.3,0.3,0.6-0.1,0.9c-0.4,0.4-1,0.5-1.5,0.4c-0.5-0.1-1.1-0.3-1.6-0.4c-0.1,0.5-0.3,0.8-0.9,0.9c-0.7,0.1-1.4-0.1-2.1-0.5
				c-0.1,0-0.2,0-0.3,0c-0.6,0.6-1.3,0.6-2,0.3c-0.3-0.1-0.5-0.2-0.8-0.3c-0.7-0.3-1.3-0.6-2-1c0.1,0,0.2,0,0.3,0
				c0.9,0,1.7,0,2.6-0.2c0.7-0.2,1.3-0.6,1.5-1.4c0.1-0.6-0.1-1.1-0.6-1.4c-0.7-0.4-1.5-0.5-2.3-0.5c-1.5,0-3.1,0-4.6,0
				C27.7,18.7,26.6,19.4,25.7,20.3z"/>
			<path fill="#F2F2F2" d="M19,42.3c-0.1-0.9,0.6-2.1,1.4-2.4c0.1,0,0.2,0,0.4,0c5.2,0,10.3,0,15.5,0c1.7,0,3.4,0,5.1,0
				c0.2,0,0.4,0.1,0.6,0.2c0.7,0.5,1.1,1.2,1.2,2.1c0,0,0,0.1,0,0.1c0,0,0,0.1,0,0.1C35,42.3,27,42.3,19,42.3z"/>
			<path fill="#F2F2F2" d="M17.4,15.7c0.3,0.2,0.5,0.3,0.7,0.4c0.3,0.2,0.5,0.4,0.8,0.6c-1,1.8-2,3.7-3,5.5c-0.5-0.2-1-0.3-1.5-0.5
				C15.4,19.7,16.4,17.7,17.4,15.7z"/>
			<path fill="#F2F2F2" d="M31,28.8c-0.4,0-0.7-0.1-1.1-0.1c-0.3-0.1-0.4-0.2-0.4-0.6c0-0.8,0.5-1.3,1.3-1.4c0.3,0,0.5,0,0.8,0.1
				c0.6,0.2,1,0.7,0.9,1.4c0,0.3-0.2,0.4-0.4,0.5C31.7,28.7,31.4,28.7,31,28.8z"/>
			<path fill="#F2F2F2" d="M31.5,26.2c-0.4,0-0.7,0-1,0c0-0.3,0-0.6,0-1c-0.5,0-1,0-1.5,0c0-0.3,0-0.6,0-1c1.3,0,2.6,0,4,0
				c0,0.3,0,0.6,0,1c-0.5,0-1,0-1.5,0C31.5,25.6,31.5,25.9,31.5,26.2z"/>
		</g>
	</g>
	<circle fill="none" stroke="#B08680" stroke-width="2" stroke-miterlimit="10" cx="29" cy="29" r="25"/>
</g>
</svg>
