<?xml version="1.0" encoding="utf-8"?>
<!-- Generator: Adobe Illustrator 18.1.1, SVG Export Plug-In . SVG Version: 6.00 Build 0)  -->
<svg version="1.1" id="Layer_1" xmlns="http://www.w3.org/2000/svg" xmlns:xlink="http://www.w3.org/1999/xlink" x="0px" y="0px"
	 viewBox="0 0 30 30" enable-background="new 0 0 30 30" xml:space="preserve">
<g>
	<path fill="none" stroke="#333333" stroke-width="2" stroke-linecap="round" stroke-linejoin="round" stroke-miterlimit="10" d="
		M19,12.6c0.3-2.7-1.9-3.1-3.5-4c-0.6,0.3-1.3,0.4-1.6,0.7c-0.8,0.9-2,2-2,3c-0.1,1.8,1.5,2.5,3.2,2.7c0.5,0.1,1.2-0.2,1.5,0
		c0.9,1,2.5,2.4,2.3,3.2c-0.4,1.2-1.9,2.7-3.1,2.9c-1.7,0.2-3.4-0.9-3.9-2.9c-0.1-0.3,0-0.6,0-0.9"/>
	<path fill="none" stroke="#333333" stroke-width="2" stroke-linecap="round" stroke-linejoin="round" stroke-miterlimit="10" d="
		M13.2,1.7C8.1,2.8,4.5,5.9,2.7,10.8c-2.5,7.2,1.7,14.8,9,16.9c5.6,1.6,10.3,0,13.8-4.3c3.3-3.9,4.3-8.5,1.9-13.5
		C25,4.6,21.2,1.8,15.4,1.7c-0.6,0-1.2,0-1.8,0"/>
</g>
</svg>
