<?xml version="1.0" encoding="utf-8"?>
<!-- Generator: Adobe Illustrator 18.1.1, SVG Export Plug-In . SVG Version: 6.00 Build 0)  -->
<svg version="1.1" id="Layer_1" xmlns="http://www.w3.org/2000/svg" xmlns:xlink="http://www.w3.org/1999/xlink" x="0px" y="0px"
	 viewBox="0 0 30 30" enable-background="new 0 0 30 30" xml:space="preserve">
<g>
	<path fill="none" stroke="#333333" stroke-width="2" stroke-linecap="round" stroke-linejoin="round" stroke-miterlimit="10" d="
		M20.2,7.9c-3.3,0-6.6,0-9.9,0"/>
	<path fill="none" stroke="#333333" stroke-width="2" stroke-linecap="round" stroke-linejoin="round" stroke-miterlimit="10" d="
		M15.3,12.8c-1.6,0-3.3,0-4.9,0"/>
	<path fill="none" stroke="#333333" stroke-width="2" stroke-linecap="round" stroke-linejoin="round" stroke-miterlimit="10" d="
		M15.3,17.7c-1.6,0-3.3,0-4.9,0"/>
	<path fill="none" stroke="#333333" stroke-width="2" stroke-linecap="round" stroke-linejoin="round" stroke-miterlimit="10" d="
		M17.8,22.7c-1.6,0-3.3,0-4.9,0"/>
	<path fill="none" stroke="#333333" stroke-width="2" stroke-linecap="round" stroke-linejoin="round" stroke-miterlimit="10" d="
		M6.4,1.7c-0.3,0.5-0.9,1-0.9,1.5c-0.1,8,0,16,0,24c0,0.4,0.2,0.7,0.4,1.3c6.2,0,12.6,0,19.1,0c0-8.9,0-17.8,0-26.9
		c-6.1,0-12.2,0-18.3,0"/>
</g>
</svg>
