<?xml version="1.0" encoding="utf-8"?>
<!-- Generator: Adobe Illustrator 18.1.1, SVG Export Plug-In . SVG Version: 6.00 Build 0)  -->
<svg version="1.1" id="Layer_1" xmlns="http://www.w3.org/2000/svg" xmlns:xlink="http://www.w3.org/1999/xlink" x="0px" y="0px"
	 viewBox="0 0 30 30" enable-background="new 0 0 30 30" xml:space="preserve">
<g>
	<path fill="none" stroke="#F2F2F2" stroke-width="2" stroke-linecap="round" stroke-linejoin="round" stroke-miterlimit="10" d="
		M4.2,7.1c0,5.1,0,10.3,0,15.4"/>
	<path fill="none" stroke="#F2F2F2" stroke-width="2" stroke-linecap="round" stroke-linejoin="round" stroke-miterlimit="10" d="
		M26,7.1c0,5.1,0,10.3,0,15.4"/>
	<path fill="none" stroke="#F2F2F2" stroke-width="2" stroke-linecap="round" stroke-linejoin="round" stroke-miterlimit="10" d="
		M7.6,3.8c5,0,10.1,0,15.1,0"/>
	<path fill="none" stroke="#F2F2F2" stroke-width="2" stroke-linecap="round" stroke-linejoin="round" stroke-miterlimit="10" d="
		M7.6,25.5c5,0,10.1,0,15.1,0"/>
	<path fill="none" stroke="#F2F2F2" stroke-width="2" stroke-linecap="round" stroke-linejoin="round" stroke-miterlimit="10" d="
		M4.2,22.8c-0.7,0.3-1.4,0.6-2.3,0.9c0,1.4,0,2.7,0,4.2c1.5,0.1,2.8,0.3,4.1,0.4c1.4-3.8,1.3-4-1.5-5.5"/>
	<path fill="none" stroke="#F2F2F2" stroke-width="2" stroke-linecap="round" stroke-linejoin="round" stroke-miterlimit="10" d="
		M7.3,3.8c-0.3-0.6-0.6-1.2-1-2c-1.3,0-2.7,0-4.3,0C2,3.3,2,4.7,2,6c3.2,1.1,3.9,0.9,5-1.9"/>
	<path fill="none" stroke="#F2F2F2" stroke-width="2" stroke-linecap="round" stroke-linejoin="round" stroke-miterlimit="10" d="
		M26,6.8c0.7-0.2,1.4-0.5,2.3-0.8c0-1.4,0-2.7,0-4.2c-1.4,0-2.8,0-4.1,0c-1.4,2.8-1.1,3.8,1.6,5"/>
	<path fill="none" stroke="#F2F2F2" stroke-width="2" stroke-linecap="round" stroke-linejoin="round" stroke-miterlimit="10" d="
		M26.3,22.8c0.6,0.3,1.2,0.6,2,1c0,1.3,0,2.6,0,4.2c-1.5,0-2.9,0-4.2,0c-1.3-3.6-1.2-3.8,1.9-5.2"/>
</g>
</svg>
