<?xml version="1.0" encoding="utf-8"?>
<!-- Generator: Adobe Illustrator 18.1.1, SVG Export Plug-In . SVG Version: 6.00 Build 0)  -->
<svg version="1.1" id="Layer_1" xmlns="http://www.w3.org/2000/svg" xmlns:xlink="http://www.w3.org/1999/xlink" x="0px" y="0px"
	 viewBox="0 0 105 105" enable-background="new 0 0 105 105" xml:space="preserve">
<g>
	<path fill="#999999" d="M31.6,41c3-3,6.2-6.2,9.4-9.4c4.3-4.3,8.6-8.5,12.9-12.8c6.1-6,13.3-8.1,21.6-6.3c0.3,0.1,0.6,0.1,1,0.2
		c2.8-8.5,8.3-12.6,15.4-11.6c6.7,0.9,11.8,6.3,12,12.7c0.3,7.4-4,12.7-11.7,14.6c2,8.8,0,16.6-6.5,22.9c-3.4-3.4-6.7-6.7-10.2-10.2
		c0.2-0.2,0.5-0.6,0.9-0.9c2.9-3.1,2.9-8,0-11.2c-2.9-3.2-7.8-3.6-11.2-1c-0.6,0.5-1.2,1-1.7,1.6C56.3,36.8,49,44,41.8,51.2
		C38.4,47.8,35.1,44.4,31.6,41z"/>
	<path fill="#999999" d="M53.3,42.1c3.6-3.6,6.9-6.9,10.3-10.3c0.3,0.3,0.7,0.6,1.1,1c7.1,7.1,14.1,14.2,21.2,21.2
		c5.9,5.9,8,12.9,6.7,21c0,0.2-0.1,0.5-0.1,0.7c8.9,2,11.9,9,11.7,14.3c-0.3,6.4-5,11.8-11,12.8c-7.4,1.3-12.6-2.1-16.3-10.6
		c-10.6,2.8-19-1.6-23.2-6.4c3.3-3.3,6.7-6.7,9.9-9.9c1.4,0.8,2.9,2,4.5,2.5c3.5,1.2,7.2-0.4,9.2-3.4c2-3,1.8-6.9-0.4-9.7
		c-0.4-0.5-0.8-0.9-1.3-1.4c-7-7-13.9-13.9-20.9-20.9C54.2,42.7,53.8,42.4,53.3,42.1z"/>
	<path fill="#999999" d="M12.3,28.2C4.5,24.9,1,19.6,1.9,12.9C2.8,6.5,7.6,1.8,14.2,1c3.5-0.4,6.8,0.5,9.7,2.7
		c2.9,2.1,4.5,5.1,5.3,8.6c8.6-1.5,15.9,0.6,21.9,6.9c-3.4,3.4-6.7,6.7-10.1,10.1c-0.3-0.2-0.6-0.5-0.9-0.9c-3.2-3-8.1-3.1-11.3-0.1
		c-3.3,3-3.7,7.8-1,11.3c0.4,0.6,0.9,1.1,1.5,1.6C36,48.2,43,55.1,49.9,62c0.4,0.4,0.8,0.7,1.2,0.9c-3.6,3.5-6.9,6.9-10.3,10.3
		c-0.2-0.2-0.5-0.5-0.9-0.8c-7.1-7.1-14.3-14.3-21.4-21.4c-6.1-6.1-8.1-13.4-6.3-21.8C12.2,28.8,12.3,28.5,12.3,28.2z"/>
	<path fill="#999999" d="M12.1,76c-1.7-8.7,0.4-16.1,6.7-22.1c3.4,3.4,6.7,6.7,10.1,10.1c-0.2,0.2-0.5,0.5-0.7,0.8
		c-3.1,3.4-3.1,8.4,0.2,11.6c3.3,3.3,8.4,3.3,11.7,0.1c4.8-4.7,9.6-9.5,14.4-14.3c2.8-2.8,5.6-5.6,8.3-8.4
		c3.4,3.4,6.7,6.8,10.1,10.2c-0.2,0.3-0.6,0.7-1,1c-7.1,7.1-14.2,14.1-21.2,21.2C45,92,38.1,94.2,30.1,92.9
		c-0.4-0.1-0.8-0.1-1.2-0.2c-1.2,4.1-3.6,7.2-7.4,9.1c-2.8,1.3-5.7,1.7-8.7,1.1c-5.6-1.1-10.2-6.1-10.8-11.6
		C1.1,84.2,4.3,79.3,12.1,76z"/>
</g>
</svg>
