<?xml version="1.0" encoding="utf-8"?>
<!-- Generator: Adobe Illustrator 18.1.1, SVG Export Plug-In . SVG Version: 6.00 Build 0)  -->
<svg version="1.1" id="Layer_1" xmlns="http://www.w3.org/2000/svg" xmlns:xlink="http://www.w3.org/1999/xlink" x="0px" y="0px"
	 viewBox="0 0 30 30" enable-background="new 0 0 30 30" xml:space="preserve">
<g>
	<path fill="none" stroke="#FFFFFF" stroke-width="2" stroke-linecap="round" stroke-linejoin="round" stroke-miterlimit="10" d="
		M27.9,22.1c0-6.1,0-12.2,0-18.6C24.4,4.7,21,5.7,17.7,7.1c-3.1,1.3-6.2,1.3-9.4,1.1c-2.8-0.2-5,0.4-6.5,3.5c0,0.7,0,1.8,0,3.1
		c1.7,2.4,4,4,7.4,3.1c0.8-0.2,1.8,0.2,2.7,0.3"/>
	<path fill="none" stroke="#FFFFFF" stroke-width="2" stroke-linecap="round" stroke-linejoin="round" stroke-miterlimit="10" d="
		M13.7,17.6c4.8,1.7,9.7,3.4,14.5,5.1"/>
	<path fill="none" stroke="#FFFFFF" stroke-width="2" stroke-linecap="round" stroke-linejoin="round" stroke-miterlimit="10" d="
		M13.7,8.8c0,8.4,0,8.4-4.1,16.3c-1.1-0.1-2.4-0.2-3.7-0.4"/>
	<path fill="none" stroke="#FFFFFF" stroke-width="2" stroke-linecap="round" stroke-linejoin="round" stroke-miterlimit="10" d="
		M7.4,18.8C6.7,20.9,6,23,5.3,25.1"/>
</g>
</svg>
