<?xml version="1.0" encoding="utf-8"?>
<!-- Generator: Adobe Illustrator 18.1.1, SVG Export Plug-In . SVG Version: 6.00 Build 0)  -->
<svg version="1.1" id="Layer_1" xmlns="http://www.w3.org/2000/svg" xmlns:xlink="http://www.w3.org/1999/xlink" x="0px" y="0px"
	 viewBox="0 0 120 110" enable-background="new 0 0 120 110" xml:space="preserve">
<g>
	<path fill="#999999" d="M37,59.1c-4.7,9.9-9,19.7-9.5,30.7c-0.1,2.4,0.3,5,1,7.4c1.2,3.8,4.3,5.2,8.7,3.9c3-0.9,5.7-2.5,8.5-3.9
		c1.1-0.5,2.1-1.3,3.1-1.8c1.2-0.6,2.2-0.2,2.9,0.8c0.7,1,0.7,2.1-0.3,2.8c-5.2,4-10.7,7.2-17.5,7.2c-5.1,0-8.9-3.1-10.4-8.3
		c-1.5-5-1.1-10.1-0.1-15.1c1.9-10.1,5.9-19.5,10.6-28.5c0.2-0.5,0.5-1.1,0.4-1.6C33,48.3,31.5,44,30,39.5
		c-4.6,0.9-9.2,2.1-13.4,4.2c-2.5,1.3-4.9,2.9-7,4.8c-2.9,2.6-2.9,5.7-0.6,8.8c1.9,2.5,4.4,4.3,7.1,5.9c0.6,0.3,1.2,0.6,1.7,1
		c1.1,0.8,1.5,2,1,3c-0.6,1.1-1.8,1.7-3.1,1.1c-1.7-0.8-3.4-1.7-4.9-2.8c-3-2.2-5.8-4.5-7.3-8.1c-1.7-4.1-1.2-7.9,1.6-11.3
		c3.7-4.5,8.6-6.9,13.9-8.7c3.1-1.1,6.4-1.9,9.8-2.9c-0.2-1.2-0.3-2.4-0.5-3.7C27.4,25.3,27,19.7,28.2,14c0.3-1.2,0.6-2.3,1.1-3.4
		c2.5-6.2,7.8-8.8,14.3-6.9c3.9,1.1,7.3,3.2,10.5,5.8c1.6,1.3,1.9,2.5,0.9,3.7c-0.9,1.2-2.2,1.2-3.8,0.1c-2.5-1.5-4.9-3-7.5-4.4
		c-0.7-0.4-1.4-0.6-2.2-0.7c-4.2-0.6-6.5,0.7-8,4.7c-1.5,3.9-1.3,7.9-1,11.9c0.2,2.5,0.7,5.1,0.9,7.6c0.1,1.1,0.7,1.4,1.7,1.3
		c4.1-0.4,8.3-0.7,12.4-1.2c0.6-0.1,1.3-0.8,1.8-1.3c4.9-6.1,10.2-11.8,16.3-16.7c4.8-3.8,9.8-7.2,15.8-8.8c6.1-1.5,11,0.1,13.6,4.8
		c1,1.8,1.8,3.9,1.9,6c0.2,3.7-0.1,7.5-0.3,11.3c-0.1,1.1-0.3,2.3-1.6,2.7c-2,0.7-3.4-0.7-3.2-2.9c0.2-2.1,0.5-4.2,0.6-6.3
		c0.1-1.7,0-3.5-0.4-5.2c-1.1-5.1-4.3-7.1-9.3-5.7c-2.9,0.9-5.8,2.2-8.4,3.8c-7.7,4.6-13.6,11.2-19.8,18.1c1,0.1,1.6,0.2,2.2,0.2
		c14.5,0.4,28.8,2.2,42.5,7.3c5.4,2,10.5,4.6,14.7,8.5c3.2,3,5.4,6.6,4.8,11.2c-0.4,3.2-2.2,5.6-4.6,7.7c-2.9,2.5-6.2,4.3-9.7,5.6
		c-1.4,0.5-2.6,0.1-3.1-1c-0.6-1.3-0.3-2.5,1.2-3.3c1.7-0.9,3.4-1.6,5-2.6c1.5-1,3-2.1,4.3-3.4c2.7-2.6,2.8-5.8,0.6-8.7
		c-2.3-3-5.3-5-8.6-6.7c-7.7-4-15.9-6.2-24.3-7.7c-9.1-1.7-18.3-2.4-27.5-2.3c-0.9,0-1.4,0.2-1.9,0.9c-3.1,4.8-6.3,9.6-9.4,14.5
		c-0.3,0.5-0.4,1.4-0.2,1.9c6,14.1,13.6,27.1,24.1,38.3c4,4.2,8.3,8.1,13.7,10.4c0.7,0.3,1.4,0.5,2.1,0.7c4,1,6.6-0.3,8.3-4.1
		c1.7-4.1,1.6-8.3,1.2-12.6c-0.8-10.9-4.3-21.1-8.6-31.1c-0.8-1.9-1.7-3.7-2.5-5.5c-0.7-1.7-0.3-3,1-3.6c1.2-0.5,2.5,0.1,3.2,1.6
		c5.3,11,9.6,22.5,11.2,34.7c0.7,5.3,0.9,10.7-0.4,16c-0.9,3.6-2.6,6.7-6,8.5c-3.2,1.8-6.6,1.5-10,0.4c-5.1-1.7-9.4-4.9-13.3-8.6
		c-9.3-8.7-16.3-19-22.2-30.2C40.5,66.1,38.8,62.7,37,59.1z M37.7,47.8c2.3-3.5,4.4-6.7,6.7-10.3c-3.4,0.4-6.4,0.7-9.6,1.1
		C35.9,41.7,36.7,44.6,37.7,47.8z"/>
	<path fill="#999999" d="M61.2,62.8c-3.9,0-6.9-2.8-6.9-6.6c0-3.7,3-6.8,6.6-6.9c4,0,7,2.9,7,6.7C68,59.9,65.1,62.8,61.2,62.8z"/>
</g>
</svg>
