<?xml version="1.0" encoding="utf-8"?>
<!-- Generator: Adobe Illustrator 18.1.1, SVG Export Plug-In . SVG Version: 6.00 Build 0)  -->
<svg version="1.1" id="Layer_1" xmlns="http://www.w3.org/2000/svg" xmlns:xlink="http://www.w3.org/1999/xlink" x="0px" y="0px"
	 viewBox="0 0 30 30" enable-background="new 0 0 30 30" xml:space="preserve">
<g>
	<path fill="none" stroke="#FFFFFF" stroke-width="2" stroke-linecap="round" stroke-linejoin="round" stroke-miterlimit="10" d="
		M6.8,4.6C2,8.1,0.4,14,2.4,19.4c2.1,5.8,8,9.1,12.9,8.7c5-0.4,8.5-2.7,11.4-7.4c4.6-7.5-1.5-17.8-9.3-19C13.7,1.1,9.9,1.3,7.1,4.6"
		/>
	<path fill="none" stroke="#FFFFFF" stroke-width="2" stroke-linecap="round" stroke-linejoin="round" stroke-miterlimit="10" d="
		M24.9,7.3c-1.2,1.5-2.3,3.1-3.7,4.5c-0.9,1-2.2,1.7-3.7,2.8c-0.3,0.9-0.7,2.4-1.4,4.5c0.9,0.8,2.1,1.9,3.4,3.2
		c1.6-1.6,2.8-2.9,4-4.2"/>
	<path fill="none" stroke="#FFFFFF" stroke-width="2" stroke-linecap="round" stroke-linejoin="round" stroke-miterlimit="10" d="
		M7.4,4.9c1.2,1.6,2.5,3.2,4.1,5.2c-2.1,1.4-4,2.6-6.1,4c0,0.7,0,1.6,0,2.3c1.7,1.8,3.3,3.6,4.9,5.3c-0.7,1.5-1.2,2.7-1.8,3.9"/>
	<path fill="none" stroke="#FFFFFF" stroke-width="2" stroke-linecap="round" stroke-linejoin="round" stroke-miterlimit="10" d="
		M23.4,16.1c-0.2,2.1,1.6,3,2.7,4.2"/>
</g>
</svg>
